<?xml version="1.0" standalone="no"?>
<!DOCTYPE svg PUBLIC "-//W3C//DTD SVG 20010904//EN"
 "http://www.w3.org/TR/2001/REC-SVG-20010904/DTD/svg10.dtd">
<svg version="1.0" xmlns="http://www.w3.org/2000/svg"
 width="225.000000pt" height="225.000000pt" viewBox="0 0 225.000000 225.000000"
 preserveAspectRatio="xMidYMid meet">
<metadata>
Created by potrace 1.14, written by Peter Selinger 2001-2017
</metadata>
<g transform="translate(0.000000,225.000000) scale(0.100000,-0.100000)"
fill="#000000" stroke="none">
<path d="M1000 2066 c-52 -24 -259 -116 -460 -206 -504 -224 -493 -219 -512
-243 -23 -29 -23 -89 -1 -116 10 -11 176 -105 368 -207 193 -102 384 -204 425
-226 309 -167 308 -167 394 -119 28 15 90 49 139 75 48 25 126 67 175 92 48
26 110 59 137 74 28 15 88 48 135 72 124 66 256 136 330 175 85 45 111 71 115
117 4 41 -29 90 -68 102 -12 3 -49 19 -82 34 -84 39 -130 59 -380 170 -121 54
-245 109 -275 123 -215 98 -287 127 -314 126 -17 0 -74 -20 -126 -43z"/>
<path d="M39 1221 c-35 -36 -39 -86 -9 -124 11 -13 48 -39 82 -57 83 -43 201
-106 263 -140 28 -15 91 -49 140 -75 86 -46 113 -60 285 -152 208 -112 312
-163 329 -163 21 0 118 49 376 190 28 15 100 53 160 85 61 32 133 70 160 85
28 15 100 53 160 85 215 114 230 124 248 152 26 42 13 100 -28 127 -34 22 -75
20 -126 -7 -256 -137 -811 -433 -871 -466 l-78 -42 -117 62 c-190 100 -265
140 -308 164 -22 12 -85 46 -140 75 -55 29 -127 67 -160 85 -33 18 -108 57
-166 88 -124 67 -156 71 -200 28z"/>
<path d="M70 869 c-36 -14 -60 -49 -60 -89 0 -58 10 -66 230 -182 47 -25 121
-65 165 -88 44 -23 118 -63 165 -88 47 -24 108 -57 135 -72 52 -29 133 -72
299 -160 82 -43 105 -51 135 -47 20 3 122 51 226 107 105 56 226 121 270 145
44 23 150 80 235 125 228 121 302 161 332 178 32 18 52 68 43 105 -9 33 -44
65 -81 73 -30 6 -40 1 -239 -106 -38 -21 -110 -59 -160 -85 -159 -83 -259
-137 -290 -155 -16 -10 -88 -48 -160 -86 -71 -37 -142 -75 -157 -83 -32 -18
-13 -26 -298 128 -85 46 -168 90 -185 98 -16 7 -48 24 -70 36 -148 83 -473
252 -490 254 -11 1 -31 -3 -45 -8z"/>
</g>
</svg>
